<svg width="60" height="60" viewBox="0 0 60 60" fill="none" xmlns="http://www.w3.org/2000/svg">
<rect width="60" height="60" fill="#2C394B"/>
<path d="M47.5 7.5H12.5C9.7375 7.5 7.5 9.7375 7.5 12.5V47.5C7.5 50.2625 9.7375 52.5 12.5 52.5H47.5C50.2625 52.5 52.5 50.2625 52.5 47.5V12.5C52.5 9.7375 50.2625 7.5 47.5 7.5ZM22.5 42.5H16.1925V25H22.5V42.5ZM19.235 21.7925C17.3075 21.7925 16.02 20.5075 16.02 18.7925C16.02 17.0775 17.305 15.7925 19.4475 15.7925C21.375 15.7925 22.6625 17.0775 22.6625 18.7925C22.6625 20.5075 21.3775 21.7925 19.235 21.7925ZM45 42.5H38.895V32.935C38.895 30.29 37.2675 29.68 36.6575 29.68C36.0475 29.68 34.0125 30.0875 34.0125 32.935C34.0125 33.3425 34.0125 42.5 34.0125 42.5H27.705V25H34.0125V27.4425C34.825 26.0175 36.4525 25 39.505 25C42.5575 25 45 27.4425 45 32.935V42.5Z" fill="white"/>
</svg>
