<svg width="220" height="151" viewBox="0 0 220 151" fill="none" xmlns="http://www.w3.org/2000/svg">
<g clip-path="url(#clip0)">
<path d="M196.215 80.9061C195.257 91.2306 190.43 101.207 183.544 109.459C183.256 109.804 182.965 110.146 182.67 110.485C182.007 111.247 181.327 111.994 180.629 112.728C179.776 113.631 178.898 114.514 177.995 115.376C177.26 116.085 176.507 116.78 175.738 117.459C175.144 117.988 174.544 118.508 173.936 119.016C166.629 125.173 158.234 130.254 149.585 134.697C132.706 143.366 114.206 149.932 94.9619 150.888C75.7209 151.842 55.6342 146.704 41.5234 134.467C22.5059 117.976 17.1983 90.4708 24.9194 67.3511C30.0548 51.9699 40.5364 38.0554 54.8014 28.9676C68.943 19.9588 86.7833 15.9038 103.667 18.5545C117.146 10.9166 134.791 10.7704 149.444 16.4239C157.263 19.4412 164.28 23.9276 170.435 29.3486C173.255 31.8365 175.892 34.497 178.331 37.3124C178.581 37.5976 178.827 37.8852 179.072 38.1752C180.095 39.3807 181.084 40.6109 182.04 41.8659C183.413 43.6658 184.716 45.5055 185.95 47.3853C186.289 47.9029 186.626 48.423 186.955 48.9478C187.176 49.3001 187.399 49.6548 187.618 50.0119C187.623 50.0192 187.626 50.0274 187.628 50.0359C191.049 55.6462 193.846 61.6329 195.303 67.8903C195.56 68.9976 195.776 70.1096 195.943 71.2312V71.2336C196.089 72.185 196.2 73.1412 196.274 74.1023C196.45 76.368 196.43 78.6433 196.215 80.9061Z" fill="#3F3D56"/>
<path opacity="0.3" d="M146.003 96.5142L107.844 66.8738L144.915 97.7014C144.986 97.8141 145.086 97.9093 145.205 97.979C145.324 98.0487 145.459 98.0909 145.6 98.1021C145.74 98.1134 145.881 98.0933 146.011 98.0436C146.141 97.9938 146.256 97.9159 146.348 97.8162C146.439 97.7165 146.504 97.598 146.536 97.4704C146.569 97.3428 146.568 97.2098 146.534 97.0825C146.5 96.9552 146.435 96.8373 146.342 96.7384C146.25 96.6396 146.133 96.5627 146.003 96.5142Z" fill="#F0F0F0"/>
<path d="M58.4949 81.431C71.1286 81.431 81.3703 71.8814 81.3703 60.1014C81.3703 48.3215 71.1286 38.7719 58.4949 38.7719C45.8611 38.7719 35.6194 48.3215 35.6194 60.1014C35.6194 71.8814 45.8611 81.431 58.4949 81.431Z" fill="#F2F2F2"/>
<path d="M78.8 58.6635C78.8003 61.2128 78.2619 63.7372 77.2157 66.0925C76.1695 68.4478 74.636 70.5879 72.7027 72.3905C70.7694 74.1931 68.4742 75.623 65.9482 76.5985C63.4222 77.574 60.7149 78.076 57.9808 78.0758C55.5439 78.0745 53.1259 77.6771 50.8354 76.9014C47.2541 75.6849 44.0993 73.5755 41.7145 70.803C39.3298 68.0305 37.8065 64.7011 37.3105 61.1773C36.8145 57.6534 37.3648 54.0703 38.9015 50.8179C40.4383 47.5655 42.9025 44.7685 46.0259 42.7315C49.1493 40.6945 52.8122 39.4954 56.6158 39.265C60.4194 39.0345 64.218 39.7815 67.5978 41.4245C70.9777 43.0675 73.8094 45.5436 75.7846 48.5832C77.7598 51.6228 78.8028 55.1095 78.8 58.6635Z" fill="white"/>
<path d="M54.3824 58.1842C57.9312 58.1842 60.8081 55.5017 60.8081 52.1928C60.8081 48.8838 57.9312 46.2013 54.3824 46.2013C50.8336 46.2013 47.9567 48.8838 47.9567 52.1928C47.9567 55.5017 50.8336 58.1842 54.3824 58.1842Z" fill="#E4E4E4"/>
<path d="M77.9878 53.2784C76.5952 53.9031 75.0078 54.039 73.5165 53.661C72.0251 53.283 70.7299 52.4166 69.868 51.2205C69.0062 50.0244 68.6355 48.5788 68.8239 47.1486C69.0123 45.7183 69.7472 44.3993 70.8939 43.4333C74.3015 45.9451 76.7818 49.3874 77.9878 53.2784Z" fill="#F2F2F2"/>
<path d="M64.9205 67.2912C66.1981 67.2912 67.2338 66.3255 67.2338 65.1343C67.2338 63.943 66.1981 62.9773 64.9205 62.9773C63.643 62.9773 62.6073 63.943 62.6073 65.1343C62.6073 66.3255 63.643 67.2912 64.9205 67.2912Z" fill="#E4E4E4"/>
<path d="M55.4106 77.3568C55.4104 77.5462 55.3836 77.7347 55.3309 77.9176C53.796 77.7386 52.2879 77.3977 50.8354 76.9014C50.9561 76.381 51.2789 75.9206 51.7417 75.6087C52.2045 75.2968 52.7747 75.1555 53.3425 75.2121C53.9103 75.2686 54.4356 75.5189 54.8174 75.9148C55.1992 76.3107 55.4105 76.8243 55.4106 77.3568Z" fill="#F2F2F2"/>
<path d="M41.7881 57.7049C41.788 58.7992 41.3419 59.8525 40.5402 60.6517C39.7384 61.4508 38.641 61.936 37.47 62.0091C36.94 59.1603 37.0945 56.2374 37.9224 53.451C39.0024 53.6189 39.9835 54.1385 40.6913 54.9174C41.3991 55.6963 41.7878 56.684 41.7881 57.7049Z" fill="#F2F2F2"/>
<path d="M155.876 50.8518C156.402 50.8518 156.828 50.4545 156.828 49.9645C156.828 49.4745 156.402 49.0772 155.876 49.0772C155.35 49.0772 154.924 49.4745 154.924 49.9645C154.924 50.4545 155.35 50.8518 155.876 50.8518Z" fill="#FF4C29"/>
<path d="M147.097 29.2649C147.404 29.2649 147.653 29.0328 147.653 28.7465C147.653 28.4602 147.404 28.2281 147.097 28.2281C146.79 28.2281 146.541 28.4602 146.541 28.7465C146.541 29.0328 146.79 29.2649 147.097 29.2649Z" fill="#F0F0F0"/>
<path d="M57.9089 130.88C58.2159 130.88 58.4649 130.648 58.4649 130.361C58.4649 130.075 58.2159 129.843 57.9089 129.843C57.6018 129.843 57.3529 130.075 57.3529 130.361C57.3529 130.648 57.6018 130.88 57.9089 130.88Z" fill="#F0F0F0"/>
<path d="M150.253 79.9874C150.561 79.9874 150.809 79.7553 150.809 79.469C150.809 79.1827 150.561 78.9506 150.253 78.9506C149.946 78.9506 149.698 79.1827 149.698 79.469C149.698 79.7553 149.946 79.9874 150.253 79.9874Z" fill="#F0F0F0"/>
<path d="M78.5107 84.8831C79.0363 84.8831 79.4623 84.4859 79.4623 83.9958C79.4623 83.5058 79.0363 83.1086 78.5107 83.1086C77.9852 83.1086 77.5591 83.5058 77.5591 83.9958C77.5591 84.4859 77.9852 84.8831 78.5107 84.8831Z" fill="#FF4C29"/>
<path d="M44.069 104.003C46.5508 104.003 48.5627 102.127 48.5627 99.8132C48.5627 97.4992 46.5508 95.6233 44.069 95.6233C41.5873 95.6233 39.5754 97.4992 39.5754 99.8132C39.5754 102.127 41.5873 104.003 44.069 104.003Z" fill="#FF4C29"/>
<path d="M68.704 104.997C69.0111 104.997 69.26 104.765 69.26 104.478C69.26 104.192 69.0111 103.96 68.704 103.96C68.397 103.96 68.1481 104.192 68.1481 104.478C68.1481 104.765 68.397 104.997 68.704 104.997Z" fill="#F0F0F0"/>
<path d="M125.25 23.9925C125.557 23.9925 125.806 23.7604 125.806 23.4741C125.806 23.1878 125.557 22.9557 125.25 22.9557C124.943 22.9557 124.694 23.1878 124.694 23.4741C124.694 23.7604 124.943 23.9925 125.25 23.9925Z" fill="#F0F0F0"/>
<path d="M92.0936 134.475C92.4006 134.475 92.6495 134.242 92.6495 133.956C92.6495 133.67 92.4006 133.438 92.0936 133.438C91.7865 133.438 91.5376 133.67 91.5376 133.956C91.5376 134.242 91.7865 134.475 92.0936 134.475Z" fill="#F0F0F0"/>
<path d="M83.8686 28.7856C84.1757 28.7856 84.4246 28.5535 84.4246 28.2672C84.4246 27.9809 84.1757 27.7488 83.8686 27.7488C83.5616 27.7488 83.3127 27.9809 83.3127 28.2672C83.3127 28.5535 83.5616 28.7856 83.8686 28.7856Z" fill="#F0F0F0"/>
<path d="M98.2622 53.9497C98.5693 53.9497 98.8182 53.7176 98.8182 53.4313C98.8182 53.145 98.5693 52.9129 98.2622 52.9129C97.9551 52.9129 97.7062 53.145 97.7062 53.4313C97.7062 53.7176 97.9551 53.9497 98.2622 53.9497Z" fill="#F0F0F0"/>
<path d="M76.2296 115.696C76.5366 115.696 76.7855 115.464 76.7855 115.178C76.7855 114.892 76.5366 114.66 76.2296 114.66C75.9225 114.66 75.6736 114.892 75.6736 115.178C75.6736 115.464 75.9225 115.696 76.2296 115.696Z" fill="#F0F0F0"/>
<path d="M141.258 119.052C141.565 119.052 141.814 118.819 141.814 118.533C141.814 118.247 141.565 118.015 141.258 118.015C140.95 118.015 140.702 118.247 140.702 118.533C140.702 118.819 140.95 119.052 141.258 119.052Z" fill="#F0F0F0"/>
<path d="M112.47 88.8547C112.777 88.8547 113.026 88.6226 113.026 88.3363C113.026 88.05 112.777 87.8179 112.47 87.8179C112.163 87.8179 111.914 88.05 111.914 88.3363C111.914 88.6226 112.163 88.8547 112.47 88.8547Z" fill="#F0F0F0"/>
<path d="M127.121 53.8647C127.428 53.8647 127.677 53.6326 127.677 53.3463C127.677 53.06 127.428 52.8279 127.121 52.8279C126.814 52.8279 126.565 53.06 126.565 53.3463C126.565 53.6326 126.814 53.8647 127.121 53.8647Z" fill="#F0F0F0"/>
<path d="M153.757 71.1647C154.366 71.1647 154.859 70.7045 154.859 70.1369C154.859 69.5692 154.366 69.109 153.757 69.109C153.148 69.109 152.655 69.5692 152.655 70.1369C152.655 70.7045 153.148 71.1647 153.757 71.1647Z" fill="#FF6584"/>
<path d="M109.034 37.1334C109.643 37.1334 110.136 36.6732 110.136 36.1055C110.136 35.5378 109.643 35.0777 109.034 35.0777C108.425 35.0777 107.932 35.5378 107.932 36.1055C107.932 36.6732 108.425 37.1334 109.034 37.1334Z" fill="#FF6584"/>
<path d="M109.034 107.832C109.643 107.832 110.136 107.372 110.136 106.804C110.136 106.237 109.643 105.777 109.034 105.777C108.425 105.777 107.932 106.237 107.932 106.804C107.932 107.372 108.425 107.832 109.034 107.832Z" fill="#FF6584"/>
<path d="M177.714 112.728C177.285 112.728 176.868 112.859 176.525 113.1C176.182 113.341 175.933 113.68 175.815 114.065C175.763 114.23 175.737 114.401 175.738 114.573V117.459C176.506 116.78 177.259 116.086 177.995 115.376C178.897 114.513 179.775 113.631 180.629 112.728H177.714Z" fill="#FF4C29"/>
<path d="M184.713 127.721C181.394 127.721 177.757 127.604 173.801 127.37C153.338 126.158 126.832 121.946 99.1659 115.509C71.5001 109.072 45.9792 101.179 27.3048 93.2844C18.2079 89.4387 11.2262 85.7984 6.5536 82.4645C1.60657 78.935 -0.557326 75.8586 0.121758 73.3209C1.44494 68.377 13.161 67.2954 22.7566 67.2586L22.7599 67.9776C9.58259 68.028 1.80864 69.9876 0.870011 73.495C-0.325645 77.9623 9.42558 84.9364 27.6232 92.6296C46.2566 100.507 71.7305 108.384 99.3527 114.811C126.975 121.238 153.432 125.443 173.849 126.653C193.789 127.833 205.912 125.949 207.107 121.481C208.1 117.772 201.556 112.308 188.681 106.096L189.036 105.457C198.391 109.971 209.25 116.446 207.856 121.655C207.176 124.193 203.716 125.961 197.571 126.909C194.068 127.45 189.765 127.721 184.713 127.721Z" fill="#FF4C29"/>
<path d="M183.667 74.1214C197.933 74.1214 209.499 63.3379 209.499 50.0359C209.499 36.7338 197.933 25.9503 183.667 25.9503C169.401 25.9503 157.836 36.7338 157.836 50.0359C157.836 63.3379 169.401 74.1214 183.667 74.1214Z" fill="white"/>
<path d="M183.667 25.5908C178.482 25.5908 173.413 27.0245 169.102 29.7105C164.791 32.3966 161.43 36.2144 159.446 40.6811C157.462 45.1479 156.943 50.063 157.954 54.8048C158.966 59.5467 161.463 63.9024 165.129 67.3211C168.796 70.7398 173.467 73.068 178.553 74.0112C183.638 74.9544 188.91 74.4703 193.7 72.6201C198.491 70.7699 202.585 67.6368 205.466 63.6168C208.346 59.5968 209.884 54.8706 209.884 50.0358C209.896 46.8224 209.227 43.6385 207.914 40.6675C206.601 37.6964 204.67 34.997 202.233 32.7248C199.796 30.4526 196.901 28.6524 193.715 27.428C190.528 26.2036 187.114 25.5792 183.667 25.5908ZM183.667 73.7619C178.635 73.7619 173.715 72.3704 169.53 69.7634C165.346 67.1563 162.084 63.4508 160.158 59.1154C158.233 54.78 157.729 50.0095 158.71 45.4071C159.692 40.8047 162.116 36.5771 165.674 33.259C169.233 29.9408 173.767 27.6811 178.703 26.7656C183.639 25.8502 188.755 26.32 193.405 28.1158C198.055 29.9116 202.029 32.9526 204.825 36.8543C207.621 40.7561 209.113 45.3433 209.113 50.0358C209.126 53.155 208.477 56.2457 207.203 59.1297C205.928 62.0138 204.055 64.6341 201.689 66.8397C199.324 69.0453 196.513 70.7925 193.42 71.9806C190.327 73.1686 187.012 73.7741 183.667 73.7619Z" fill="#2F2E41"/>
<path d="M160.999 55.8046C160.88 55.8044 160.766 55.7663 160.674 55.6965C160.583 55.6268 160.519 55.5297 160.496 55.4217C159.757 51.9124 159.89 48.2918 160.886 44.838C161.881 41.3842 163.712 38.189 166.238 35.4977C166.329 35.4033 166.456 35.3463 166.592 35.3392C166.728 35.3321 166.861 35.3755 166.963 35.4599C167.064 35.5443 167.126 35.6628 167.134 35.7894C167.142 35.9161 167.096 36.0405 167.005 36.1355C164.585 38.7146 162.83 41.7765 161.876 45.0863C160.922 48.396 160.795 51.8656 161.503 55.2286C161.518 55.2983 161.516 55.3703 161.498 55.4394C161.48 55.5085 161.445 55.573 161.397 55.6281C161.349 55.6832 161.288 55.7277 161.219 55.7582C161.15 55.7887 161.075 55.8046 160.999 55.8046H160.999Z" fill="#2F2E41"/>
<path d="M183.651 72.4127C192.719 72.4127 200.069 65.5588 200.069 57.1041C200.069 48.6494 192.719 41.7955 183.651 41.7955C174.584 41.7955 167.233 48.6494 167.233 57.1041C167.233 65.5588 174.584 72.4127 183.651 72.4127Z" fill="#FF4C29"/>
<path d="M184.341 76.1968H169.459C168.904 76.1973 168.372 76.403 167.98 76.7687C167.588 77.1345 167.367 77.6304 167.367 78.1476V108.903C167.368 110.987 167.981 113.031 169.139 114.814C170.297 116.596 171.956 118.05 173.936 119.016C174.545 118.508 175.146 117.989 175.738 117.459C176.506 116.78 177.259 116.086 177.995 115.376C178.897 114.513 179.775 113.631 180.629 112.728C181.328 111.994 182.009 111.247 182.67 110.485C182.966 110.147 183.257 109.805 183.544 109.459C190.43 101.207 195.257 91.2305 196.215 80.9061C194.678 79.4159 192.834 78.2306 190.793 77.4214C188.753 76.6121 186.558 76.1956 184.341 76.1968Z" fill="#2F2E41"/>
<path d="M184.883 82.6149C184.529 82.2916 184.11 82.0369 183.65 81.8654C183.19 81.6939 182.698 81.6089 182.202 81.6155C181.341 81.6216 180.509 81.9062 179.848 82.4208C179.742 82.5005 179.642 82.5861 179.547 82.6772L167.367 94.3245L158.533 102.772C158.398 102.899 158.287 103.044 158.204 103.204C158.071 103.451 158.003 103.723 158.006 104C158.008 104.227 158.059 104.451 158.155 104.659C158.252 104.868 158.391 105.057 158.566 105.215L158.913 105.531L161.432 107.82L161.434 107.817C161.773 108.073 162.196 108.212 162.632 108.208C162.876 108.205 163.116 108.158 163.34 108.068C163.563 107.979 163.766 107.848 163.935 107.685L164.344 107.297L167.269 104.5L167.367 104.407L184.95 87.5926C185.649 86.9241 186.034 86.0242 186.022 85.0908C186.009 84.1574 185.6 83.2668 184.883 82.6149L184.883 82.6149Z" fill="#FF4C29"/>
<path d="M184.759 49.9621C185.302 48.8917 184.746 47.7482 183.792 47.0645C182.59 46.2028 181.036 46.3453 179.669 46.7532C178.173 47.1997 176.71 48.0032 175.093 47.957C174.517 47.9474 173.957 47.7758 173.487 47.4646C173.018 47.1533 172.66 46.7171 172.46 46.2129C171.594 44.1425 172.572 41.8284 174.079 40.2582C174.93 39.359 175.982 38.6444 177.161 38.1647C178.339 37.685 179.616 37.4518 180.902 37.4815C182.369 37.5494 183.796 37.9548 185.055 38.6616C186.314 39.3684 187.365 40.3546 188.116 41.5323C188.17 41.6128 188.254 41.671 188.352 41.695C188.45 41.719 188.555 41.7069 188.644 41.6613C189.788 41.1844 191.022 40.9238 192.274 40.8944C193.527 40.865 194.773 41.0675 195.942 41.4901C197.694 42.1562 199.188 43.3037 200.225 44.7802C201.261 46.2566 201.792 47.9922 201.745 49.7564C201.733 50.2192 202.504 50.2189 202.517 49.7564C202.565 47.29 201.589 44.9018 199.792 43.0909C198.88 42.1879 197.783 41.4646 196.566 40.9638C195.349 40.4629 194.037 40.1946 192.707 40.1748C191.171 40.1443 189.649 40.4404 188.254 41.0405L188.782 41.1695C188.087 40.0786 187.153 39.1365 186.042 38.4045C184.93 37.6724 183.666 37.1669 182.331 36.9208C181.009 36.6908 179.649 36.7286 178.345 37.0316C177.04 37.3346 175.82 37.8958 174.768 38.677C172.789 40.1214 171.288 42.3629 171.382 44.7668C171.422 45.807 171.754 46.8749 172.528 47.65C173.52 48.6429 175.001 48.8146 176.37 48.5602C178.188 48.2222 179.849 47.1068 181.745 47.1412C182.116 47.1414 182.483 47.2151 182.822 47.3575C183.16 47.4998 183.463 47.7075 183.709 47.9669C184.126 48.4063 184.378 49.0383 184.094 49.5993C183.883 50.0153 184.547 50.3806 184.759 49.9621L184.759 49.9621Z" fill="#2F2E41"/>
<path d="M61.7031 136.45C52.5531 136.451 44.0467 136.158 36.4315 135.567C26.4778 134.795 18.5901 133.553 12.988 131.877C7.05662 130.103 3.90991 127.883 3.63519 125.28C3.0998 120.209 13.7451 115.52 22.7697 112.479L23.0317 113.155C10.6387 117.331 4.02275 121.612 4.40251 125.21C4.88619 129.792 16.5836 133.306 36.4954 134.85C56.8842 136.432 83.7158 135.872 112.048 133.271C140.38 130.671 166.814 126.344 186.481 121.086C205.688 115.951 216.426 110.378 215.942 105.796C215.541 101.991 207.408 98.8953 193.043 97.0773L193.147 96.3649C203.585 97.6858 216.145 100.382 216.709 105.725C216.984 108.328 214.362 111.077 208.916 113.896C203.771 116.559 196.295 119.21 186.693 121.777C166.983 127.046 140.501 131.382 112.124 133.987C94.322 135.62 77.1048 136.45 61.7031 136.45Z" fill="#FF4C29"/>
<path d="M215.506 108.317C217.988 108.317 220 106.441 220 104.127C220 101.813 217.988 99.9371 215.506 99.9371C213.025 99.9371 211.013 101.813 211.013 104.127C211.013 106.441 213.025 108.317 215.506 108.317Z" fill="#FF4C29"/>
<path d="M85.1935 8.37988C87.6752 8.37988 89.6871 6.50398 89.6871 4.18994C89.6871 1.8759 87.6752 0 85.1935 0C82.7117 0 80.6998 1.8759 80.6998 4.18994C80.6998 6.50398 82.7117 8.37988 85.1935 8.37988Z" fill="#E6E6E6"/>
<path d="M5.00086 108.077C7.48262 108.077 9.49448 106.201 9.49448 103.887C9.49448 101.573 7.48262 99.6975 5.00086 99.6975C2.5191 99.6975 0.507233 101.573 0.507233 103.887C0.507233 106.201 2.5191 108.077 5.00086 108.077Z" fill="#E6E6E6"/>
<path d="M32.7598 28.5637C34.279 28.5637 35.5106 27.4153 35.5106 25.9988C35.5106 24.5822 34.279 23.4339 32.7598 23.4339C31.2406 23.4339 30.009 24.5822 30.009 25.9988C30.009 27.4153 31.2406 28.5637 32.7598 28.5637Z" fill="#FF6584"/>
<path d="M19.9084 125.865C21.4277 125.865 22.6592 124.716 22.6592 123.3C22.6592 121.883 21.4277 120.735 19.9084 120.735C18.3892 120.735 17.1577 121.883 17.1577 123.3C17.1577 124.716 18.3892 125.865 19.9084 125.865Z" fill="#FF6584"/>
<path d="M207.539 83.9245C209.058 83.9245 210.289 82.7762 210.289 81.3596C210.289 79.9431 209.058 78.7948 207.539 78.7948C206.019 78.7948 204.788 79.9431 204.788 81.3596C204.788 82.7762 206.019 83.9245 207.539 83.9245Z" fill="#FF6584"/>
<path d="M165.9 147.621C168.382 147.621 170.394 145.745 170.394 143.431C170.394 141.117 168.382 139.241 165.9 139.241C163.418 139.241 161.406 141.117 161.406 143.431C161.406 145.745 163.418 147.621 165.9 147.621Z" fill="#E6E6E6"/>
</g>
<defs>
<clipPath id="clip0">
<rect width="220" height="151" fill="white"/>
</clipPath>
</defs>
</svg>
