<svg width="60" height="60" viewBox="0 0 60 60" fill="none" xmlns="http://www.w3.org/2000/svg">
<rect width="60" height="60" fill="#2C394B"/>
<path d="M47.5 7.5H12.5C9.7375 7.5 7.5 9.7375 7.5 12.5V47.5C7.5 50.2625 9.7375 52.5 12.5 52.5H47.5C50.2625 52.5 52.5 50.2625 52.5 47.5V12.5C52.5 9.7375 50.2625 7.5 47.5 7.5ZM42.625 23.785C42.625 24 42.625 24.2125 42.625 24.6425C42.625 32.785 36.41 42.215 25.0525 42.215C21.625 42.215 18.41 41.1425 15.625 39.43C16.0525 39.43 16.6975 39.43 17.125 39.43C19.91 39.43 22.6975 38.3575 24.84 36.8575C22.055 36.8575 19.9125 34.93 19.055 32.5725C19.4825 32.5725 19.9125 32.7875 20.1275 32.7875C20.77 32.7875 21.2 32.7875 21.8425 32.5725C19.0575 31.93 16.915 29.5725 16.915 26.5725C17.7725 27 18.63 27.215 19.7 27.43C17.985 25.93 16.915 24.215 16.915 22.0725C16.915 21 17.13 19.93 17.7725 19.0725C20.7725 22.715 25.2725 25.2875 30.415 25.5C30.415 25.0725 30.2 24.6425 30.2 24C30.2 20.5725 32.985 17.785 36.415 17.785C38.13 17.785 39.8425 18.4275 40.915 19.7125C42.415 19.4975 43.7 18.855 44.7725 18.2125C44.345 19.7125 43.2725 20.785 41.9875 21.64C43.2725 21.425 44.345 21.2125 45.63 20.5675C44.7675 21.8575 43.6975 22.9275 42.625 23.785Z" fill="white"/>
</svg>
